<?xml version="1.0" encoding="UTF-8" standalone="no"?>
<!-- Uploaded to: SVG Repo, www.svgrepo.com, Generator: SVG Repo Mixer Tools -->

<svg
   height="800"
   width="800"
   version="1.1"
   id="Layer_1"
   viewBox="0 0 389.712 389.712"
   xml:space="preserve"
   sodipodi:docname="swan-blue-filled-simplified.svg"
   inkscape:version="1.2.2 (b0a84865, 2022-12-01)"
   inkscape:export-filename="swan-blue-simple.svg"
   inkscape:export-xdpi="96"
   inkscape:export-ydpi="96"
   xmlns:inkscape="http://www.inkscape.org/namespaces/inkscape"
   xmlns:sodipodi="http://sodipodi.sourceforge.net/DTD/sodipodi-0.dtd"
   xmlns="http://www.w3.org/2000/svg"
   xmlns:svg="http://www.w3.org/2000/svg"><defs
   id="defs88" /><sodipodi:namedview
   id="namedview86"
   pagecolor="#ffffff"
   bordercolor="#000000"
   borderopacity="0.25"
   inkscape:showpageshadow="2"
   inkscape:pageopacity="0.0"
   inkscape:pagecheckerboard="0"
   inkscape:deskcolor="#d1d1d1"
   showgrid="false"
   inkscape:zoom="1.9952877"
   inkscape:cx="526.23991"
   inkscape:cy="263.11996"
   inkscape:window-width="2097"
   inkscape:window-height="1260"
   inkscape:window-x="2194"
   inkscape:window-y="25"
   inkscape:window-maximized="0"
   inkscape:current-layer="g83" />
<g
   id="g83">
	<path
   style="fill:#ffb648;stroke:#000000;stroke-width:11.6914;stroke-dasharray:none;stroke-opacity:1"
   d="M 339.0498,114.46491 366.361,132.624 c 3.643,3.643 9.551,3.643 13.195,0 3.644,-3.644 3.644,-9.552 0.001,-13.195 L 363.22202,94.861261 c -7.82469,11.351859 -18.90388,18.326519 -24.17222,19.603649 z"
   id="path69"
   sodipodi:nodetypes="cccccc" />
	<path
   style="fill:#03a9f4;fill-opacity:1;stroke:#000000;stroke-width:11.6914;stroke-dasharray:none;stroke-opacity:1"
   d="M 367.813,205.845 272.05,110.082 c -1.582,-1.582 -4.236,-5.013 -4.236,-10.226 0,-0.489 0.026,-0.971 0.073,-1.447 0.725,-7.123 6.741,-12.683 14.056,-12.683 3.903,0 7.436,1.583 9.993,4.141 l 0.0901,0.08609 14.56891,14.56991 c 13.841,13.84 36.28,13.84 50.121,0 9.50869,-9.509381 12.82248,-23.172652 9.26632,-35.221719 -1.62023,-5.489737 -4.5965,-10.664408 -8.92881,-14.996714 C 356.39251,53.643567 355.37,53.121 354.672,52.524 L 333.379,32.628 c -0.231,-0.243 -0.49,-0.489 -0.788,-0.736 -17.652,-14.647 -50.319,-9.591 -50.319,-9.591 -42.763,0 -77.554,34.791 -77.554,77.554 0,20.718 8.069,40.195 22.718,54.842 l 68.218,68.219 H 121.358 c -33.661,0 -62.744,-19.591 -76.476,-47.99 C 17.722,194.22 0,225.933 0,261.785 c 0,58.801 47.668,106.47 106.47,106.47 h 192.666 c 35.685,0 65.34,-25.729 71.481,-59.643 12.339,-13.733 19.095,-31.295 19.095,-49.899 0,-19.971 -7.777,-38.747 -21.899,-52.868 z"
   id="path71"
   sodipodi:nodetypes="csscsccccssccccsccscssscsc" />
	<path
   style="fill:#586069;stroke:#000000;stroke-width:11.6914;stroke-dasharray:none;stroke-opacity:1"
   d="m 366.583,73.489 c -0.001,0 -0.001,0 -0.001,10e-4 -6.23,6.229 -16.332,6.229 -22.561,0.001 l -7.799,-7.799 c -2.476,-2.476 -6.49,-2.476 -8.965,0 -2.476,2.476 -2.476,6.489 0,8.965 l 15.946,15.946 c 6.142,6.144 6.215,16.043 0.244,22.29 4.846,-1.705 9.395,-4.494 13.27,-8.369 8.445,-8.447 11.727,-20.094 9.866,-31.035 z"
   id="path73" />
	<g
   id="g81"
   style="fill:#29b6f6;fill-opacity:1;stroke-width:11.6914;stroke-dasharray:none">
		
		<path
   style="fill:#29b6f6;fill-opacity:1;stroke:#000000;stroke-width:11.6914;stroke-dasharray:none;stroke-opacity:1"
   d="m 211.12497,315.07725 c 19.18729,17.66713 50.29669,17.66713 69.48514,0 19.18729,-17.665 19.18729,-46.30516 -0.001,-63.97016 L 121.71724,104.82054 c -38.37343,35.32894 -38.374586,92.61139 -0.001,127.94033 z"
   id="path77" />
		
	</g>
</g>
</svg>
